<?xml version="1.0" encoding="utf-8"?>
<!-- Generator: Adobe Illustrator 23.0.4, SVG Export Plug-In . SVG Version: 6.00 Build 0)  -->
<svg version="1.1" id="Livello_1" xmlns="http://www.w3.org/2000/svg" xmlns:xlink="http://www.w3.org/1999/xlink" x="0px" y="0px"
	 viewBox="0 0 158.3 47" style="enable-background:new 0 0 158.3 47;" xml:space="preserve">
<style type="text/css">
	.st0{fill:#25509F;}
	.st1{fill:#EB5F40;}
</style>
<rect x="32.9" y="8" class="st0" width="4.1" height="31.4"/>
<polygon class="st0" points="67.5,40.1 77.3,18.7 77.4,18.7 81.3,39.4 85.5,39.4 78.8,6.7 67.5,31.4 56.2,6.7 49.5,39.4 53.7,39.4 
	57.6,18.7 57.7,18.7 "/>
<path class="st0" d="M116,12.1c-1.8-3-4.8-4.7-8.4-4.7c-5,0-9.7,3-9.7,8.1c0,4.4,3.4,6.4,7.1,8l2.3,0.9c2.8,1.1,5.7,2.6,5.7,6
	c0,3.3-2.5,6.1-6.1,6.1c-3.5,0-6.4-2.5-6.4-6l-4.1,0.8c0.7,5,4.8,8.8,10.1,8.8c5.9,0,10.5-4.1,10.5-9.8c0-5.2-3.5-7.7-8.1-9.5
	l-2.4-0.9c-2-0.8-4.6-2-4.6-4.5c0-2.7,2.9-4.5,5.5-4.5c2.5,0,4,1,5.3,2.9L116,12.1z"/>
<polygon class="st0" points="136.8,28 142.7,15.3 148.5,28 150.2,31.6 153.9,39.4 158.3,39.4 142.7,6.7 127,39.4 131.4,39.4 
	135.1,31.6 "/>
<path class="st0" d="M3.7,22.9l0-11.4h1.5c4,0,8.9,0.7,8.9,5.6c0,3.9-2.5,4.9-5,5.4l7.3,16.9h4.4l-7.4-14.6c2.9-1.5,4.6-4.4,4.6-7.8
	c0-3-1.6-5.9-4.3-7.5C11,8.1,7.9,8,5,8H0v31.4h3.7V26.1L3.7,22.9z"/>
<polygon class="st1" points="142.6,23 150.7,47 134.5,47 "/>
<polygon class="st1" points="68,24.1 60.1,0 75.9,0 "/>
</svg>
